ISO-10303-21;
HEADER;
FILE_NAME('Open CASCADE Shape Model','2026-09-01T14:37:48',('Author'),(
    'Open CASCADE'),'Open CASCADE STEP processor 7.9','Open CASCADE 7.9'
  ,'Unknown');
FILE_DESCRIPTION(('Open CASCADE Model'),'2;1');
FILE_SCHEMA(('AUTOMOTIVE_DESIGN'));
ENDSEC;
DATA;
#1 = APPLICATION_PROTOCOL_DEFINITION('international standard',
  'automotive_design',2000,#2);
#2 = APPLICATION_CONTEXT(
  'core data for automotive mechanical design processes');
#3 = SHAPE_DEFINITION_REPRESENTATION(#4,#10);
#4 = PRODUCT_DEFINITION_SHAPE('','',#5);
#5 = PRODUCT_DEFINITION('design','',#6,#9);
#6 = PRODUCT_DEFINITION_FORMATION('','',#7);
#7 = PRODUCT('Open CASCADE STEP translator 7.9 1',
  'Open CASCADE STEP translator 7.9 1','',(#8));
#8 = PRODUCT_CONTEXT('',#2,'mechanical');
#9 = PRODUCT_DEFINITION_CONTEXT('part definition',#2,'design');
#10 = ADVANCED_BREP_SHAPE_REPRESENTATION('',(#11,#15),#297);
#11 = AXIS2_PLACEMENT_3D('',#12,#13,#14);
#12 = CARTESIAN_POINT('',(0.,0.,0.));
#13 = DIRECTION('',(0.,0.,1.));
#14 = DIRECTION('',(1.,0.,-0.));
#15 = MANIFOLD_SOLID_BREP('',#16);
#16 = CLOSED_SHELL('',(#17,#228,#287,#292));
#17 = ADVANCED_FACE('',(#18),#35,.T.);
#18 = FACE_BOUND('',#19,.T.);
#19 = EDGE_LOOP('',(#20,#99,#169,#203));
#20 = ORIENTED_EDGE('',*,*,#21,.T.);
#21 = EDGE_CURVE('',#22,#24,#26,.T.);
#22 = VERTEX_POINT('',#23);
#23 = CARTESIAN_POINT('',(9.6E-02,0.,0.));
#24 = VERTEX_POINT('',#25);
#25 = CARTESIAN_POINT('',(-2.4E-02,0.,0.));
#26 = SURFACE_CURVE('',#27,(#34,#84),.PCURVE_S1.);
#27 = B_SPLINE_CURVE_WITH_KNOTS('',3,(#28,#29,#30,#31,#32,#33),
  .UNSPECIFIED.,.F.,.F.,(4,1,1,4),(0.,0.333333333333,0.666666666667,1.),
  .QUASI_UNIFORM_KNOTS.);
#28 = CARTESIAN_POINT('',(9.6E-02,0.,0.));
#29 = CARTESIAN_POINT('',(8.4E-02,3.E-03,0.));
#30 = CARTESIAN_POINT('',(6.E-02,6.E-03,0.));
#31 = CARTESIAN_POINT('',(3.E-02,9.E-03,0.));
#32 = CARTESIAN_POINT('',(0.,8.04E-03,0.));
#33 = CARTESIAN_POINT('',(-2.4E-02,0.,0.));
#34 = PCURVE('',#35,#78);
#35 = ( BOUNDED_SURFACE() B_SPLINE_SURFACE(3,6,(
    (#36,#37,#38,#39,#40,#41,#42)
    ,(#43,#44,#45,#46,#47,#48,#49)
    ,(#50,#51,#52,#53,#54,#55,#56)
    ,(#57,#58,#59,#60,#61,#62,#63)
    ,(#64,#65,#66,#67,#68,#69,#70)
    ,(#71,#72,#73,#74,#75,#76,#77
)),.UNSPECIFIED.,.F.,.F.,.F.) B_SPLINE_SURFACE_WITH_KNOTS((4,1,1,4),(7,7
    ),(0.,0.333333333333,0.666666666667,1.),(0.,1.),.UNSPECIFIED.) 
GEOMETRIC_REPRESENTATION_ITEM() RATIONAL_B_SPLINE_SURFACE((
    (1.,1.,1.,1.,1.,1.,1.)
    ,(1.,1.,1.,1.,1.,1.,1.)
    ,(1.,1.,1.,1.,1.,1.,1.)
    ,(1.,1.,1.,1.,1.,1.,1.)
    ,(1.,1.,1.,1.,1.,1.,1.)
,(1.,1.,1.,1.,1.,1.,1.))) REPRESENTATION_ITEM('') SURFACE() );
#36 = CARTESIAN_POINT('',(9.6E-02,0.,0.));
#37 = CARTESIAN_POINT('',(8.936464394453E-02,1.47784730422E-02,
    8.292900705883E-02));
#38 = CARTESIAN_POINT('',(8.477172858902E-02,2.831031265737E-02,
    0.165872124494));
#39 = CARTESIAN_POINT('',(8.230224455425E-02,3.734569698375E-02,
    0.249867775713));
#40 = CARTESIAN_POINT('',(8.246128446105E-02,3.632800690522E-02,
    0.334008348264));
#41 = CARTESIAN_POINT('',(8.521268662167E-02,3.062205577933E-02,
    0.417095009537));
#42 = CARTESIAN_POINT('',(9.075323607405E-02,2.366662265748E-02,0.5));
#43 = CARTESIAN_POINT('',(8.4E-02,3.E-03,0.));
#44 = CARTESIAN_POINT('',(7.797693100727E-02,1.65782599835E-02,
    8.292900705883E-02));
#45 = CARTESIAN_POINT('',(7.412883171507E-02,2.905589501373E-02,
    0.165872124494));
#46 = CARTESIAN_POINT('',(7.251877886535E-02,3.718400676401E-02,
    0.249867775713));
#47 = CARTESIAN_POINT('',(7.361903273096E-02,3.544759580965E-02,
    0.334008348264));
#48 = CARTESIAN_POINT('',(7.733803132902E-02,2.920867036093E-02,
    0.417095009537));
#49 = CARTESIAN_POINT('',(8.385439509626E-02,2.189782379578E-02,0.5));
#50 = CARTESIAN_POINT('',(6.E-02,6.E-03,0.));
#51 = CARTESIAN_POINT('',(5.541859533184E-02,1.750958138895E-02,
    8.292900705883E-02));
#52 = CARTESIAN_POINT('',(5.321973995896E-02,2.820864711395E-02,
    0.165872124494));
#53 = CARTESIAN_POINT('',(5.343764838869E-02,3.484570216521E-02,
    0.249867775713));
#54 = CARTESIAN_POINT('',(5.647907653128E-02,3.197533287966E-02,
    0.334008348264));
#55 = CARTESIAN_POINT('',(6.215372376915E-02,2.494558727752E-02,
    0.417095009537));
#56 = CARTESIAN_POINT('',(7.061139960921E-02,1.71706971019E-02,0.5));
#57 = CARTESIAN_POINT('',(3.E-02,9.E-03,0.));
#58 = CARTESIAN_POINT('',(2.727494828732E-02,1.800667002647E-02,
    8.292900705883E-02));
#59 = CARTESIAN_POINT('',(2.71775507618E-02,2.656498408612E-02,
    0.165872124494));
#60 = CARTESIAN_POINT('',(2.970768551809E-02,3.141909037685E-02,
    0.249867775713));
#61 = CARTESIAN_POINT('',(3.519026809684E-02,2.720714403246E-02,
    0.334008348264));
#62 = CARTESIAN_POINT('',(4.331459007565E-02,1.925765536162E-02,
    0.417095009537));
#63 = CARTESIAN_POINT('',(5.419632686754E-02,1.096440649192E-02,0.5));
#64 = CARTESIAN_POINT('',(0.,8.04E-03,0.));
#65 = CARTESIAN_POINT('',(-5.821396944184E-04,1.498166539415E-02,
    8.292900705883E-02));
#66 = CARTESIAN_POINT('',(1.632608193837E-03,2.183461640979E-02,
    0.165872124494));
#67 = CARTESIAN_POINT('',(6.618979836952E-03,2.533277869817E-02,
    0.249867775713));
#68 = CARTESIAN_POINT('',(1.462026204627E-02,2.017985340996E-02,
    0.334008348264));
#69 = CARTESIAN_POINT('',(2.522126037569E-02,1.167379128021E-02,
    0.417095009537));
#70 = CARTESIAN_POINT('',(3.851344026433E-02,3.187937640901E-03,0.5));
#71 = CARTESIAN_POINT('',(-2.4E-02,0.,0.));
#72 = CARTESIAN_POINT('',(-2.234158343723E-02,6.093817683689E-03,
    8.292900705883E-02));
#73 = CARTESIAN_POINT('',(-1.789022023236E-02,1.238201009605E-02,
    0.165872124494));
#74 = CARTESIAN_POINT('',(-1.06744033237E-02,1.557955319297E-02,
    0.249867775713));
#75 = CARTESIAN_POINT('',(-5.15760234684E-04,1.040948856096E-02,
    0.334008348264));
#76 = CARTESIAN_POINT('',(1.211616394932E-02,2.125079129343E-03,
    0.417095009537));
#77 = CARTESIAN_POINT('',(2.731169098149E-02,-5.91665566437E-03,0.5));
#78 = DEFINITIONAL_REPRESENTATION('',(#79),#83);
#79 = LINE('',#80,#81);
#80 = CARTESIAN_POINT('',(0.,0.));
#81 = VECTOR('',#82,1.);
#82 = DIRECTION('',(1.,0.));
#83 = ( GEOMETRIC_REPRESENTATION_CONTEXT(2) 
PARAMETRIC_REPRESENTATION_CONTEXT() REPRESENTATION_CONTEXT('2D SPACE',''
  ) );
#84 = PCURVE('',#85,#90);
#85 = PLANE('',#86);
#86 = AXIS2_PLACEMENT_3D('',#87,#88,#89);
#87 = CARTESIAN_POINT('',(9.6E-02,0.,0.));
#88 = DIRECTION('',(0.,0.,-1.));
#89 = DIRECTION('',(-1.,0.,0.));
#90 = DEFINITIONAL_REPRESENTATION('',(#91),#98);
#91 = B_SPLINE_CURVE_WITH_KNOTS('',3,(#92,#93,#94,#95,#96,#97),
  .UNSPECIFIED.,.F.,.F.,(4,1,1,4),(0.,0.333333333333,0.666666666667,1.),
  .QUASI_UNIFORM_KNOTS.);
#92 = CARTESIAN_POINT('',(0.,0.));
#93 = CARTESIAN_POINT('',(1.2E-02,3.E-03));
#94 = CARTESIAN_POINT('',(3.6E-02,6.E-03));
#95 = CARTESIAN_POINT('',(6.6E-02,9.E-03));
#96 = CARTESIAN_POINT('',(9.6E-02,8.04E-03));
#97 = CARTESIAN_POINT('',(0.12,0.));
#98 = ( GEOMETRIC_REPRESENTATION_CONTEXT(2) 
PARAMETRIC_REPRESENTATION_CONTEXT() REPRESENTATION_CONTEXT('2D SPACE',''
  ) );
#99 = ORIENTED_EDGE('',*,*,#100,.T.);
#100 = EDGE_CURVE('',#24,#101,#103,.T.);
#101 = VERTEX_POINT('',#102);
#102 = CARTESIAN_POINT('',(2.731169098149E-02,-5.91665566437E-03,0.5));
#103 = SURFACE_CURVE('',#104,(#112,#119),.PCURVE_S1.);
#104 = ( BOUNDED_CURVE() B_SPLINE_CURVE(6,(#105,#106,#107,#108,#109,#110
,#111),.UNSPECIFIED.,.F.,.F.) B_SPLINE_CURVE_WITH_KNOTS((7,7),(0.,1.),
.PIECEWISE_BEZIER_KNOTS.) CURVE() GEOMETRIC_REPRESENTATION_ITEM() 
RATIONAL_B_SPLINE_CURVE((1.,1.,1.,1.,1.,1.,1.)) REPRESENTATION_ITEM('') 
  );
#105 = CARTESIAN_POINT('',(-2.4E-02,0.,0.));
#106 = CARTESIAN_POINT('',(-2.234158343723E-02,6.093817683689E-03,
    8.292900705883E-02));
#107 = CARTESIAN_POINT('',(-1.789022023236E-02,1.238201009605E-02,
    0.165872124494));
#108 = CARTESIAN_POINT('',(-1.06744033237E-02,1.557955319297E-02,
    0.249867775713));
#109 = CARTESIAN_POINT('',(-5.15760234684E-04,1.040948856096E-02,
    0.334008348264));
#110 = CARTESIAN_POINT('',(1.211616394932E-02,2.125079129343E-03,
    0.417095009537));
#111 = CARTESIAN_POINT('',(2.731169098149E-02,-5.91665566437E-03,0.5));
#112 = PCURVE('',#35,#113);
#113 = DEFINITIONAL_REPRESENTATION('',(#114),#118);
#114 = LINE('',#115,#116);
#115 = CARTESIAN_POINT('',(1.,0.));
#116 = VECTOR('',#117,1.);
#117 = DIRECTION('',(0.,1.));
#118 = ( GEOMETRIC_REPRESENTATION_CONTEXT(2) 
PARAMETRIC_REPRESENTATION_CONTEXT() REPRESENTATION_CONTEXT('2D SPACE',''
  ) );
#119 = PCURVE('',#120,#163);
#120 = ( BOUNDED_SURFACE() B_SPLINE_SURFACE(3,6,(
    (#121,#122,#123,#124,#125,#126,#127)
    ,(#128,#129,#130,#131,#132,#133,#134)
    ,(#135,#136,#137,#138,#139,#140,#141)
    ,(#142,#143,#144,#145,#146,#147,#148)
    ,(#149,#150,#151,#152,#153,#154,#155)
    ,(#156,#157,#158,#159,#160,#161,#162
)),.UNSPECIFIED.,.F.,.F.,.F.) B_SPLINE_SURFACE_WITH_KNOTS((4,1,1,4),(7,7
    ),(1.,1.333333333333,1.666666666667,2.),(0.,1.),.UNSPECIFIED.) 
GEOMETRIC_REPRESENTATION_ITEM() RATIONAL_B_SPLINE_SURFACE((
    (1.,1.,1.,1.,1.,1.,1.)
    ,(1.,1.,1.,1.,1.,1.,1.)
    ,(1.,1.,1.,1.,1.,1.,1.)
    ,(1.,1.,1.,1.,1.,1.,1.)
    ,(1.,1.,1.,1.,1.,1.,1.)
,(1.,1.,1.,1.,1.,1.,1.))) REPRESENTATION_ITEM('') SURFACE() );
#121 = CARTESIAN_POINT('',(-2.4E-02,0.,0.));
#122 = CARTESIAN_POINT('',(-2.234158343723E-02,6.093817683689E-03,
    8.292900705883E-02));
#123 = CARTESIAN_POINT('',(-1.789022023236E-02,1.238201009605E-02,
    0.165872124494));
#124 = CARTESIAN_POINT('',(-1.06744033237E-02,1.557955319297E-02,
    0.249867775713));
#125 = CARTESIAN_POINT('',(-5.15760234684E-04,1.040948856096E-02,
    0.334008348264));
#126 = CARTESIAN_POINT('',(1.211616394932E-02,2.125079129343E-03,
    0.417095009537));
#127 = CARTESIAN_POINT('',(2.731169098149E-02,-5.91665566437E-03,0.5));
#128 = CARTESIAN_POINT('',(0.,-6.E-03,0.));
#129 = CARTESIAN_POINT('',(4.338424372821E-04,2.494243801091E-03,
    8.292900705883E-02));
#130 = CARTESIAN_POINT('',(3.395573515549E-03,1.089084538333E-02,
    0.165872124494));
#131 = CARTESIAN_POINT('',(8.892528054084E-03,1.590293363244E-02,
    0.249867775713));
#132 = CARTESIAN_POINT('',(1.71687432255E-02,1.217031075209E-02,
    0.334008348264));
#133 = CARTESIAN_POINT('',(2.786547453461E-02,4.951849966154E-03,
    0.417095009537));
#134 = CARTESIAN_POINT('',(4.110937293707E-02,-2.379057940971E-03,0.5));
#135 = CARTESIAN_POINT('',(3.E-02,-6.96E-03,0.));
#136 = CARTESIAN_POINT('',(2.842986814643E-02,3.811566848031E-03,
    8.292900705883E-02));
#137 = CARTESIAN_POINT('',(2.918160535827E-02,1.412462898766E-02,
    0.165872124494));
#138 = CARTESIAN_POINT('',(3.229214631193E-02,2.069969384914E-02,
    0.249867775713));
#139 = CARTESIAN_POINT('',(3.808725952279E-02,1.810227930171E-02,
    0.334008348264));
#140 = CARTESIAN_POINT('',(4.632040617083E-02,1.161647420974E-02,
    0.417095009537));
#141 = CARTESIAN_POINT('',(5.714725888014E-02,4.636112368936E-03,0.5));
#142 = CARTESIAN_POINT('',(6.E-02,-5.04E-03,0.));
#143 = CARTESIAN_POINT('',(5.621748726446E-02,7.690412273034E-03,
    8.292900705883E-02));
#144 = CARTESIAN_POINT('',(5.460600328885E-02,1.960328869998E-02,
    0.165872124494));
#145 = CARTESIAN_POINT('',(5.522539570472E-02,2.743078125881E-02,
    0.249867775713));
#146 = CARTESIAN_POINT('',(5.848301044999E-02,2.567723096065E-02,
    0.334008348264));
#147 = CARTESIAN_POINT('',(6.423293490266E-02,1.965995821006E-02,
    0.417095009537));
#148 = CARTESIAN_POINT('',(7.265264581342E-02,1.279323049051E-02,0.5));
#149 = CARTESIAN_POINT('',(8.4E-02,-2.04E-03,0.));
#150 = CARTESIAN_POINT('',(7.834164254172E-02,1.209559582189E-02,
    8.292900705883E-02));
#151 = CARTESIAN_POINT('',(7.476169106132E-02,2.512736182474E-02,
    0.165872124494));
#152 = CARTESIAN_POINT('',(7.33349243792E-02,3.379893417631E-02,
    0.249867775713));
#153 = CARTESIAN_POINT('',(7.453387212863E-02,3.257237536837E-02,
    0.334008348264));
#154 = CARTESIAN_POINT('',(7.828723641171E-02,2.679566578665E-02,
    0.417095009537));
#155 = CARTESIAN_POINT('',(8.47862683634E-02,1.989941512536E-02,0.5));
#156 = CARTESIAN_POINT('',(9.6E-02,0.,0.));
#157 = CARTESIAN_POINT('',(8.936464394453E-02,1.47784730422E-02,
    8.292900705883E-02));
#158 = CARTESIAN_POINT('',(8.477172858902E-02,2.831031265737E-02,
    0.165872124494));
#159 = CARTESIAN_POINT('',(8.230224455425E-02,3.734569698375E-02,
    0.249867775713));
#160 = CARTESIAN_POINT('',(8.246128446105E-02,3.632800690522E-02,
    0.334008348264));
#161 = CARTESIAN_POINT('',(8.521268662167E-02,3.062205577933E-02,
    0.417095009537));
#162 = CARTESIAN_POINT('',(9.075323607405E-02,2.366662265748E-02,0.5));
#163 = DEFINITIONAL_REPRESENTATION('',(#164),#168);
#164 = LINE('',#165,#166);
#165 = CARTESIAN_POINT('',(1.,0.));
#166 = VECTOR('',#167,1.);
#167 = DIRECTION('',(0.,1.));
#168 = ( GEOMETRIC_REPRESENTATION_CONTEXT(2) 
PARAMETRIC_REPRESENTATION_CONTEXT() REPRESENTATION_CONTEXT('2D SPACE',''
  ) );
#169 = ORIENTED_EDGE('',*,*,#170,.F.);
#170 = EDGE_CURVE('',#171,#101,#173,.T.);
#171 = VERTEX_POINT('',#172);
#172 = CARTESIAN_POINT('',(9.075323607405E-02,2.366662265748E-02,0.5));
#173 = SURFACE_CURVE('',#174,(#181,#188),.PCURVE_S1.);
#174 = B_SPLINE_CURVE_WITH_KNOTS('',3,(#175,#176,#177,#178,#179,#180),
  .UNSPECIFIED.,.F.,.F.,(4,1,1,4),(0.,0.333333333333,0.666666666667,1.),
  .QUASI_UNIFORM_KNOTS.);
#175 = CARTESIAN_POINT('',(9.075323607405E-02,2.366662265748E-02,0.5));
#176 = CARTESIAN_POINT('',(8.385439509626E-02,2.189782379578E-02,0.5));
#177 = CARTESIAN_POINT('',(7.061139960921E-02,1.71706971019E-02,0.5));
#178 = CARTESIAN_POINT('',(5.419632686754E-02,1.096440649192E-02,0.5));
#179 = CARTESIAN_POINT('',(3.851344026433E-02,3.187937640901E-03,0.5));
#180 = CARTESIAN_POINT('',(2.731169098149E-02,-5.91665566437E-03,0.5));
#181 = PCURVE('',#35,#182);
#182 = DEFINITIONAL_REPRESENTATION('',(#183),#187);
#183 = LINE('',#184,#185);
#184 = CARTESIAN_POINT('',(0.,1.));
#185 = VECTOR('',#186,1.);
#186 = DIRECTION('',(1.,0.));
#187 = ( GEOMETRIC_REPRESENTATION_CONTEXT(2) 
PARAMETRIC_REPRESENTATION_CONTEXT() REPRESENTATION_CONTEXT('2D SPACE',''
  ) );
#188 = PCURVE('',#189,#194);
#189 = PLANE('',#190);
#190 = AXIS2_PLACEMENT_3D('',#191,#192,#193);
#191 = CARTESIAN_POINT('',(9.075323607405E-02,2.366662265748E-02,0.5));
#192 = DIRECTION('',(0.,0.,-1.));
#193 = DIRECTION('',(-0.906307787037,-0.422618261741,-0.));
#194 = DEFINITIONAL_REPRESENTATION('',(#195),#202);
#195 = B_SPLINE_CURVE_WITH_KNOTS('',3,(#196,#197,#198,#199,#200,#201),
  .UNSPECIFIED.,.F.,.F.,(4,1,1,4),(0.,0.333333333333,0.666666666667,1.),
  .QUASI_UNIFORM_KNOTS.);
#196 = CARTESIAN_POINT('',(0.,0.));
#197 = CARTESIAN_POINT('',(7.E-03,1.3125E-03));
#198 = CARTESIAN_POINT('',(2.1E-02,2.625E-03));
#199 = CARTESIAN_POINT('',(3.85E-02,3.9375E-03));
#200 = CARTESIAN_POINT('',(5.6E-02,3.5175E-03));
#201 = CARTESIAN_POINT('',(7.E-02,0.));
#202 = ( GEOMETRIC_REPRESENTATION_CONTEXT(2) 
PARAMETRIC_REPRESENTATION_CONTEXT() REPRESENTATION_CONTEXT('2D SPACE',''
  ) );
#203 = ORIENTED_EDGE('',*,*,#204,.F.);
#204 = EDGE_CURVE('',#22,#171,#205,.T.);
#205 = SURFACE_CURVE('',#206,(#214,#221),.PCURVE_S1.);
#206 = ( BOUNDED_CURVE() B_SPLINE_CURVE(6,(#207,#208,#209,#210,#211,#212
,#213),.UNSPECIFIED.,.F.,.F.) B_SPLINE_CURVE_WITH_KNOTS((7,7),(0.,1.),
.PIECEWISE_BEZIER_KNOTS.) CURVE() GEOMETRIC_REPRESENTATION_ITEM() 
RATIONAL_B_SPLINE_CURVE((1.,1.,1.,1.,1.,1.,1.)) REPRESENTATION_ITEM('') 
  );
#207 = CARTESIAN_POINT('',(9.6E-02,0.,0.));
#208 = CARTESIAN_POINT('',(8.936464394453E-02,1.47784730422E-02,
    8.292900705883E-02));
#209 = CARTESIAN_POINT('',(8.477172858902E-02,2.831031265737E-02,
    0.165872124494));
#210 = CARTESIAN_POINT('',(8.230224455425E-02,3.734569698375E-02,
    0.249867775713));
#211 = CARTESIAN_POINT('',(8.246128446105E-02,3.632800690522E-02,
    0.334008348264));
#212 = CARTESIAN_POINT('',(8.521268662167E-02,3.062205577933E-02,
    0.417095009537));
#213 = CARTESIAN_POINT('',(9.075323607405E-02,2.366662265748E-02,0.5));
#214 = PCURVE('',#35,#215);
#215 = DEFINITIONAL_REPRESENTATION('',(#216),#220);
#216 = LINE('',#217,#218);
#217 = CARTESIAN_POINT('',(0.,0.));
#218 = VECTOR('',#219,1.);
#219 = DIRECTION('',(0.,1.));
#220 = ( GEOMETRIC_REPRESENTATION_CONTEXT(2) 
PARAMETRIC_REPRESENTATION_CONTEXT() REPRESENTATION_CONTEXT('2D SPACE',''
  ) );
#221 = PCURVE('',#120,#222);
#222 = DEFINITIONAL_REPRESENTATION('',(#223),#227);
#223 = LINE('',#224,#225);
#224 = CARTESIAN_POINT('',(2.,0.));
#225 = VECTOR('',#226,1.);
#226 = DIRECTION('',(0.,1.));
#227 = ( GEOMETRIC_REPRESENTATION_CONTEXT(2) 
PARAMETRIC_REPRESENTATION_CONTEXT() REPRESENTATION_CONTEXT('2D SPACE',''
  ) );
#228 = ADVANCED_FACE('',(#229),#120,.T.);
#229 = FACE_BOUND('',#230,.T.);
#230 = EDGE_LOOP('',(#231,#258,#259,#286));
#231 = ORIENTED_EDGE('',*,*,#232,.T.);
#232 = EDGE_CURVE('',#24,#22,#233,.T.);
#233 = SURFACE_CURVE('',#234,(#241,#248),.PCURVE_S1.);
#234 = B_SPLINE_CURVE_WITH_KNOTS('',3,(#235,#236,#237,#238,#239,#240),
  .UNSPECIFIED.,.F.,.F.,(4,1,1,4),(1.,1.333333333333,1.666666666667,2.),
  .QUASI_UNIFORM_KNOTS.);
#235 = CARTESIAN_POINT('',(-2.4E-02,0.,0.));
#236 = CARTESIAN_POINT('',(0.,-6.E-03,0.));
#237 = CARTESIAN_POINT('',(3.E-02,-6.96E-03,0.));
#238 = CARTESIAN_POINT('',(6.E-02,-5.04E-03,0.));
#239 = CARTESIAN_POINT('',(8.4E-02,-2.04E-03,0.));
#240 = CARTESIAN_POINT('',(9.6E-02,0.,0.));
#241 = PCURVE('',#120,#242);
#242 = DEFINITIONAL_REPRESENTATION('',(#243),#247);
#243 = LINE('',#244,#245);
#244 = CARTESIAN_POINT('',(0.,0.));
#245 = VECTOR('',#246,1.);
#246 = DIRECTION('',(1.,0.));
#247 = ( GEOMETRIC_REPRESENTATION_CONTEXT(2) 
PARAMETRIC_REPRESENTATION_CONTEXT() REPRESENTATION_CONTEXT('2D SPACE',''
  ) );
#248 = PCURVE('',#85,#249);
#249 = DEFINITIONAL_REPRESENTATION('',(#250),#257);
#250 = B_SPLINE_CURVE_WITH_KNOTS('',3,(#251,#252,#253,#254,#255,#256),
  .UNSPECIFIED.,.F.,.F.,(4,1,1,4),(1.,1.333333333333,1.666666666667,2.),
  .QUASI_UNIFORM_KNOTS.);
#251 = CARTESIAN_POINT('',(0.12,0.));
#252 = CARTESIAN_POINT('',(9.6E-02,-6.E-03));
#253 = CARTESIAN_POINT('',(6.6E-02,-6.96E-03));
#254 = CARTESIAN_POINT('',(3.6E-02,-5.04E-03));
#255 = CARTESIAN_POINT('',(1.2E-02,-2.04E-03));
#256 = CARTESIAN_POINT('',(0.,0.));
#257 = ( GEOMETRIC_REPRESENTATION_CONTEXT(2) 
PARAMETRIC_REPRESENTATION_CONTEXT() REPRESENTATION_CONTEXT('2D SPACE',''
  ) );
#258 = ORIENTED_EDGE('',*,*,#204,.T.);
#259 = ORIENTED_EDGE('',*,*,#260,.F.);
#260 = EDGE_CURVE('',#101,#171,#261,.T.);
#261 = SURFACE_CURVE('',#262,(#269,#276),.PCURVE_S1.);
#262 = B_SPLINE_CURVE_WITH_KNOTS('',3,(#263,#264,#265,#266,#267,#268),
  .UNSPECIFIED.,.F.,.F.,(4,1,1,4),(1.,1.333333333333,1.666666666667,2.),
  .QUASI_UNIFORM_KNOTS.);
#263 = CARTESIAN_POINT('',(2.731169098149E-02,-5.91665566437E-03,0.5));
#264 = CARTESIAN_POINT('',(4.110937293707E-02,-2.379057940971E-03,0.5));
#265 = CARTESIAN_POINT('',(5.714725888014E-02,4.636112368936E-03,0.5));
#266 = CARTESIAN_POINT('',(7.265264581342E-02,1.279323049051E-02,0.5));
#267 = CARTESIAN_POINT('',(8.47862683634E-02,1.989941512536E-02,0.5));
#268 = CARTESIAN_POINT('',(9.075323607405E-02,2.366662265748E-02,0.5));
#269 = PCURVE('',#120,#270);
#270 = DEFINITIONAL_REPRESENTATION('',(#271),#275);
#271 = LINE('',#272,#273);
#272 = CARTESIAN_POINT('',(0.,1.));
#273 = VECTOR('',#274,1.);
#274 = DIRECTION('',(1.,0.));
#275 = ( GEOMETRIC_REPRESENTATION_CONTEXT(2) 
PARAMETRIC_REPRESENTATION_CONTEXT() REPRESENTATION_CONTEXT('2D SPACE',''
  ) );
#276 = PCURVE('',#189,#277);
#277 = DEFINITIONAL_REPRESENTATION('',(#278),#285);
#278 = B_SPLINE_CURVE_WITH_KNOTS('',3,(#279,#280,#281,#282,#283,#284),
  .UNSPECIFIED.,.F.,.F.,(4,1,1,4),(1.,1.333333333333,1.666666666667,2.),
  .QUASI_UNIFORM_KNOTS.);
#279 = CARTESIAN_POINT('',(7.E-02,0.));
#280 = CARTESIAN_POINT('',(5.6E-02,-2.625E-03));
#281 = CARTESIAN_POINT('',(3.85E-02,-3.045E-03));
#282 = CARTESIAN_POINT('',(2.1E-02,-2.205E-03));
#283 = CARTESIAN_POINT('',(7.E-03,-8.925E-04));
#284 = CARTESIAN_POINT('',(0.,0.));
#285 = ( GEOMETRIC_REPRESENTATION_CONTEXT(2) 
PARAMETRIC_REPRESENTATION_CONTEXT() REPRESENTATION_CONTEXT('2D SPACE',''
  ) );
#286 = ORIENTED_EDGE('',*,*,#100,.F.);
#287 = ADVANCED_FACE('',(#288),#85,.T.);
#288 = FACE_BOUND('',#289,.T.);
#289 = EDGE_LOOP('',(#290,#291));
#290 = ORIENTED_EDGE('',*,*,#21,.F.);
#291 = ORIENTED_EDGE('',*,*,#232,.F.);
#292 = ADVANCED_FACE('',(#293),#189,.F.);
#293 = FACE_BOUND('',#294,.T.);
#294 = EDGE_LOOP('',(#295,#296));
#295 = ORIENTED_EDGE('',*,*,#170,.T.);
#296 = ORIENTED_EDGE('',*,*,#260,.T.);
#297 = ( GEOMETRIC_REPRESENTATION_CONTEXT(3) 
GLOBAL_UNCERTAINTY_ASSIGNED_CONTEXT((#301)) GLOBAL_UNIT_ASSIGNED_CONTEXT
((#298,#299,#300)) REPRESENTATION_CONTEXT('Context #1',
  '3D Context with UNIT and UNCERTAINTY') );
#298 = ( LENGTH_UNIT() NAMED_UNIT(*) SI_UNIT($,.METRE.) );
#299 = ( NAMED_UNIT(*) PLANE_ANGLE_UNIT() SI_UNIT($,.RADIAN.) );
#300 = ( NAMED_UNIT(*) SI_UNIT($,.STERADIAN.) SOLID_ANGLE_UNIT() );
#301 = UNCERTAINTY_MEASURE_WITH_UNIT(LENGTH_MEASURE(1.E-07),#298,
  'distance_accuracy_value','confusion accuracy');
#302 = PRODUCT_RELATED_PRODUCT_CATEGORY('part',$,(#7));
ENDSEC;
END-ISO-10303-21;
